<svg width="100" height="100" viewBox="0 0 100 100" fill="none" xmlns="http://www.w3.org/2000/svg">
<path d="M81.5 83.1564L48.6818 91.3596V5.64036L81.5 13.8436V83.1564ZM20.5 81.8127V15.1873H36.4091V81.8127H20.5Z" stroke="#0D1A3C"/>
<path d="M54.5 47.8922L54.5 47.8919C54.4993 46.4656 55.0757 45.0956 56.1057 44.0837C57.1359 43.0714 58.5356 42.5007 59.9972 42.5C61.4589 42.4993 62.8592 43.0686 63.8905 44.0798C64.9214 45.0908 65.4993 46.4603 65.5 47.8865V50.1065C65.5 52.5733 63.7912 54.7331 61.3329 55.3393C60.5211 55.538 59.6738 55.5526 58.8553 55.382C58.0369 55.2113 57.2694 54.86 56.6111 54.3554C55.9528 53.8507 55.421 53.2062 55.0556 52.471C54.6901 51.736 54.5003 50.9294 54.5 50.1124C54.5 50.1124 54.5 50.1123 54.5 50.1123L54.5 47.8922Z" stroke="#0D1A3C"/>
</svg>
