<svg width="32" height="31" viewBox="0 0 32 31" fill="none" xmlns="http://www.w3.org/2000/svg">
<path fill-rule="evenodd" clip-rule="evenodd" d="M12.3333 30.8613C12.3423 30.8643 12.3513 30.8673 12.3592 30.8692C12.3791 30.8762 12.4 30.8812 12.4209 30.8852C12.6379 30.932 12.8609 30.9559 13.0839 30.9559C14.8211 30.9559 16.2298 29.5472 16.2298 27.8091V24.5946L23.3954 17.9208L23.4023 17.9138C23.684 17.644 23.9299 17.3503 24.141 17.0397C25.5626 14.9532 25.3844 12.0881 23.5686 10.1917C21.9807 8.53318 19.5248 8.0444 17.4233 8.96922C17.0958 9.11356 16.9475 9.49583 17.0918 9.82236C17.2352 10.1489 17.6175 10.2982 17.944 10.1539C19.5478 9.44806 21.4223 9.82038 22.6338 11.0867C24.0196 12.5331 24.1559 14.7192 23.0718 16.312C22.9106 16.548 22.7244 16.771 22.5094 16.977L15.5826 23.4289L8.65592 16.977C8.44189 16.771 8.25577 16.548 8.0945 16.312C7.01039 14.7192 7.14672 12.5331 8.53246 11.0867C9.74399 9.82038 11.6186 9.44806 13.2223 10.1539C13.5489 10.2982 13.9311 10.1489 14.0744 9.82236C14.2188 9.49583 14.0705 9.11356 13.7429 8.96922C11.6414 8.0444 9.18554 8.53318 7.59772 10.1917C5.78192 12.0881 5.60371 14.9532 7.02529 17.0397C7.23634 17.3503 7.48223 17.644 7.76396 17.9138L7.77095 17.9208L14.9355 24.5946V27.8091C14.9355 28.8325 14.1063 29.6617 13.0839 29.6617C12.9505 29.6617 12.8171 29.6468 12.6867 29.6189L12.6738 29.6159L12.4269 29.5651C6.99147 28.3337 1.97711 23.0247 1.36786 17.0925C1.21455 15.5893 1.29819 14.0363 1.64961 12.4814C3.38875 4.79211 11.0431 -0.0400486 18.7334 1.69909C26.4237 3.43823 31.2559 11.0926 29.5167 18.7829C28.9553 21.2656 27.7427 23.5483 26.0075 25.4C25.461 24.94 24.7552 24.6633 23.9857 24.6633C22.2485 24.6633 20.8389 26.0729 20.8389 27.8091C20.8389 29.5462 22.2485 30.9559 23.9857 30.9559C25.7218 30.9559 27.1315 29.5462 27.1315 27.8091C27.1315 27.3153 27.017 26.8474 26.8139 26.4303C28.78 24.3856 30.1519 21.8411 30.779 19.0686C32.6755 10.6815 27.4063 2.33322 19.0192 0.436791C10.632 -1.45964 2.28374 3.80954 0.387302 12.1966C0.00403264 13.892 -0.0875979 15.5853 0.0806422 17.2239C0.744643 23.6967 6.21696 29.4875 12.1472 30.8284L12.2895 30.8444L12.1661 30.8324L12.3333 30.8613ZM23.9857 25.9574C25.0071 25.9574 25.8374 26.7867 25.8374 27.8091C25.8374 28.8315 25.0071 29.6617 23.9857 29.6617C22.9633 29.6617 22.1331 28.8315 22.1331 27.8091C22.1331 26.7867 22.9633 25.9574 23.9857 25.9574Z" fill="#0D1A3C"/>
</svg>
