<svg width="100" height="100" viewBox="0 0 100 100" fill="none" xmlns="http://www.w3.org/2000/svg">
<path d="M88.6242 45.8417C90.5992 48.425 90.5992 51.9125 88.6242 54.4917C82.4033 62.6125 67.4784 79.3333 50.0534 79.3333C32.6284 79.3333 17.7033 62.6125 11.4825 54.4917C10.5216 53.2547 10 51.733 10 50.1667C10 48.6003 10.5216 47.0786 11.4825 45.8417C17.7033 37.7208 32.6284 21 50.0534 21C67.4784 21 82.4033 37.7208 88.6242 45.8417V45.8417Z" stroke="#0D1A3C" stroke-linecap="round" stroke-linejoin="round"/>
<path d="M50.0533 62.6667C56.9569 62.6667 62.5533 57.0702 62.5533 50.1667C62.5533 43.2631 56.9569 37.6667 50.0533 37.6667C43.1498 37.6667 37.5533 43.2631 37.5533 50.1667C37.5533 57.0702 43.1498 62.6667 50.0533 62.6667Z" stroke="#0D1A3C" stroke-linecap="round" stroke-linejoin="round"/>
</svg>
