<svg width="100" height="100" viewBox="0 0 100 100" fill="none" xmlns="http://www.w3.org/2000/svg">
<path d="M84.2301 19.9664L84.2305 19.9668C86.5442 22.2299 88.3945 24.9223 89.6777 27.8936C91.0082 30.9854 91.6873 34.2671 91.6777 37.6451V37.6465C91.6777 40.83 91.0277 44.1582 89.7283 47.5558L89.7279 47.5569C88.6501 50.3956 87.0776 53.3502 85.0729 56.3428C81.897 61.0775 77.5211 66.0286 72.0731 71.0583C63.0321 79.3985 54.0953 85.1518 53.7243 85.3896L53.7242 85.3897L51.4107 86.8734C50.5494 87.4231 49.4409 87.4231 48.5795 86.8734L46.266 85.3897L46.2661 85.3896L46.2581 85.3847C45.8962 85.162 36.9497 79.3997 27.9173 71.0585L27.9173 71.0584C22.4691 66.0286 18.0931 61.0774 14.9172 56.3426C12.9132 53.351 11.3499 50.3961 10.2619 47.5558C8.96257 44.1582 8.3125 40.83 8.3125 37.6465C8.3125 34.2674 8.99193 30.985 10.3226 27.893C11.6021 24.9202 13.4526 22.2274 15.7691 19.9673L15.7698 19.9666C18.0972 17.6871 20.8071 15.8965 23.8143 14.6514L23.8148 14.6512C26.9271 13.3584 30.2212 12.707 33.623 12.707C38.346 12.707 42.9532 14.0003 46.9564 16.4425L47.2168 16.0156L46.9564 16.4425C47.9142 17.0267 48.8236 17.6681 49.685 18.3668L50 18.6223L50.315 18.3668C51.1764 17.6681 52.0858 17.0267 53.0436 16.4425L52.7841 16.0171L53.0436 16.4425C57.0468 14.0003 61.654 12.707 66.377 12.707L66.3781 12.707C69.7436 12.6993 73.0771 13.3601 76.1851 14.6512L76.1858 14.6515C79.1829 15.8915 81.9138 17.6959 84.2301 19.9664Z" stroke="#0D1A3C"/>
</svg>
